<svg id="visual" viewBox="0 0 1920 1080" width="1920" height="1080" xmlns="http://www.w3.org/2000/svg" xmlns:xlink="http://www.w3.org/1999/xlink" version="1.1"><path d="M0 120L80 118.2C160 116.3 320 112.7 480 109C640 105.3 800 101.7 960 101.7C1120 101.7 1280 105.3 1440 107.2C1600 109 1760 109 1840 109L1920 109L1920 0L1840 0C1760 0 1600 0 1440 0C1280 0 1120 0 960 0C800 0 640 0 480 0C320 0 160 0 80 0L0 0Z" fill="#fbda03"></path><path d="M0 444L80 433.2C160 422.3 320 400.7 480 395.2C640 389.7 800 400.3 960 400.3C1120 400.3 1280 389.7 1440 379C1600 368.3 1760 357.7 1840 352.3L1920 347L1920 107L1840 107C1760 107 1600 107 1440 105.2C1280 103.3 1120 99.7 960 99.7C800 99.7 640 103.3 480 107C320 110.7 160 114.3 80 116.2L0 118Z" fill="#f8db30"></path><path d="M0 617L80 602.5C160 588 320 559 480 551.7C640 544.3 800 558.7 960 556.8C1120 555 1280 537 1440 524.5C1600 512 1760 505 1840 501.5L1920 498L1920 345L1840 350.3C1760 355.7 1600 366.3 1440 377C1280 387.7 1120 398.3 960 398.3C800 398.3 640 387.7 480 393.2C320 398.7 160 420.3 80 431.2L0 442Z" fill="#f5dc46"></path><path d="M0 865L80 856C160 847 320 829 480 818.2C640 807.3 800 803.7 960 807.3C1120 811 1280 822 1440 823.8C1600 825.7 1760 818.3 1840 814.7L1920 811L1920 496L1840 499.5C1760 503 1600 510 1440 522.5C1280 535 1120 553 960 554.8C800 556.7 640 542.3 480 549.7C320 557 160 586 80 600.5L0 615Z" fill="#f3dc59"></path><path d="M0 973L80 967.7C160 962.3 320 951.7 480 942.7C640 933.7 800 926.3 960 924.5C1120 922.7 1280 926.3 1440 926.3C1600 926.3 1760 922.7 1840 920.8L1920 919L1920 809L1840 812.7C1760 816.3 1600 823.7 1440 821.8C1280 820 1120 809 960 805.3C800 801.7 640 805.3 480 816.2C320 827 160 845 80 854L0 863Z" fill="#f0dd69"></path><path d="M0 1081L80 1081C160 1081 320 1081 480 1081C640 1081 800 1081 960 1081C1120 1081 1280 1081 1440 1081C1600 1081 1760 1081 1840 1081L1920 1081L1920 917L1840 918.8C1760 920.7 1600 924.3 1440 924.3C1280 924.3 1120 920.7 960 922.5C800 924.3 640 931.7 480 940.7C320 949.7 160 960.3 80 965.7L0 971Z" fill="#edde79"></path></svg>