<svg id="visual" viewBox="0 0 1920 1080" width="1920" height="1080" xmlns="http://www.w3.org/2000/svg" xmlns:xlink="http://www.w3.org/1999/xlink" version="1.1"><path d="M0 87L64 88.8C128 90.7 256 94.3 384 94.3C512 94.3 640 90.7 768 87.2C896 83.7 1024 80.3 1152 78.7C1280 77 1408 77 1536 84.2C1664 91.3 1792 105.7 1856 112.8L1920 120L1920 0L1856 0C1792 0 1664 0 1536 0C1408 0 1280 0 1152 0C1024 0 896 0 768 0C640 0 512 0 384 0C256 0 128 0 64 0L0 0Z" fill="#fcfcf8"></path><path d="M0 163L64 163C128 163 256 163 384 161.2C512 159.3 640 155.7 768 152C896 148.3 1024 144.7 1152 144.7C1280 144.7 1408 148.3 1536 155.7C1664 163 1792 174 1856 179.5L1920 185L1920 118L1856 110.8C1792 103.7 1664 89.3 1536 82.2C1408 75 1280 75 1152 76.7C1024 78.3 896 81.7 768 85.2C640 88.7 512 92.3 384 92.3C256 92.3 128 88.7 64 86.8L0 85Z" fill="#fcfbf7"></path><path d="M0 293L64 294.7C128 296.3 256 299.7 384 306.8C512 314 640 325 768 321.5C896 318 1024 300 1152 292.8C1280 285.7 1408 289.3 1536 300.2C1664 311 1792 329 1856 338L1920 347L1920 183L1856 177.5C1792 172 1664 161 1536 153.7C1408 146.3 1280 142.7 1152 142.7C1024 142.7 896 146.3 768 150C640 153.7 512 157.3 384 159.2C256 161 128 161 64 161L0 161Z" fill="#fbfbf6"></path><path d="M0 368L64 368C128 368 256 368 384 378.8C512 389.7 640 411.3 768 413.2C896 415 1024 397 1152 388C1280 379 1408 379 1536 384.3C1664 389.7 1792 400.3 1856 405.7L1920 411L1920 345L1856 336C1792 327 1664 309 1536 298.2C1408 287.3 1280 283.7 1152 290.8C1024 298 896 316 768 319.5C640 323 512 312 384 304.8C256 297.7 128 294.3 64 292.7L0 291Z" fill="#fbfaf5"></path><path d="M0 444L64 445.8C128 447.7 256 451.3 384 462.2C512 473 640 491 768 489.2C896 487.3 1024 465.7 1152 456.7C1280 447.7 1408 451.3 1536 460.3C1664 469.3 1792 483.7 1856 490.8L1920 498L1920 409L1856 403.7C1792 398.3 1664 387.7 1536 382.3C1408 377 1280 377 1152 386C1024 395 896 413 768 411.2C640 409.3 512 387.7 384 376.8C256 366 128 366 64 366L0 366Z" fill="#faf8f2"></path><path d="M0 703L64 708.3C128 713.7 256 724.3 384 729.7C512 735 640 735 768 722.5C896 710 1024 685 1152 681.5C1280 678 1408 696 1536 701.3C1664 706.7 1792 699.3 1856 695.7L1920 692L1920 496L1856 488.8C1792 481.7 1664 467.3 1536 458.3C1408 449.3 1280 445.7 1152 454.7C1024 463.7 896 485.3 768 487.2C640 489 512 471 384 460.2C256 449.3 128 445.7 64 443.8L0 442Z" fill="#f7f5eb"></path><path d="M0 833L64 836.5C128 840 256 847 384 847C512 847 640 840 768 831C896 822 1024 811 1152 814.5C1280 818 1408 836 1536 834.2C1664 832.3 1792 810.7 1856 799.8L1920 789L1920 690L1856 693.7C1792 697.3 1664 704.7 1536 699.3C1408 694 1280 676 1152 679.5C1024 683 896 708 768 720.5C640 733 512 733 384 727.7C256 722.3 128 711.7 64 706.3L0 701Z" fill="#f5f1e4"></path><path d="M0 1081L64 1081C128 1081 256 1081 384 1081C512 1081 640 1081 768 1081C896 1081 1024 1081 1152 1081C1280 1081 1408 1081 1536 1081C1664 1081 1792 1081 1856 1081L1920 1081L1920 787L1856 797.8C1792 808.7 1664 830.3 1536 832.2C1408 834 1280 816 1152 812.5C1024 809 896 820 768 829C640 838 512 845 384 845C256 845 128 838 64 834.5L0 831Z" fill="#f2eedd"></path></svg>