<?xml version="1.0" encoding="utf-8"?>
<!DOCTYPE svg PUBLIC "-//W3C//DTD SVG 1.0//EN" "http://www.w3.org/TR/2001/REC-SVG-20010904/DTD/svg10.dtd">
<svg version="1.0" xmlns="http://www.w3.org/2000/svg" width="500px" height="500px" viewBox="0 0 500 500" preserveAspectRatio="xMidYMid meet">
 <g fill="#062116">
  <path d="M227.8 435.3 c-1 -0.2 -1.8 -1.3 -1.8 -2.4 0 -1.5 0.7 -1.9 3.5 -1.9 3.1 0 3.5 0.3 3.5 2.5 0 2.5 -1.1 2.9 -5.2 1.8z"/>
  <path d="M208.3 429.7 c-4.6 -1.5 -6.3 -2.6 -6.3 -3.9 0 -2.1 3.4 -2.4 9.3 -0.7 3.2 0.9 3.7 1.4 3.7 3.9 0 1.7 -0.1 3 -0.2 2.9 -0.2 0 -3.1 -1 -6.5 -2.2z"/>
  <path d="M236.7 422.3 c-0.4 -0.3 -0.7 -2.2 -0.7 -4.1 l0 -3.5 6.8 0.6 c3.7 0.4 8.6 0.7 11 0.7 4.1 0 4.2 0.1 4.2 3.5 l0 3.5 -10.3 0 c-5.7 0 -10.7 -0.3 -11 -0.7z"/>
  <path d="M334 380.1 c0 -1.6 0.8 -4.3 1.8 -6 1.3 -2.5 2.4 -3.1 5 -3.1 2.9 0 3.2 0.3 3.2 3 0 1.7 -0.7 4.4 -1.5 6 -1.3 2.5 -2.2 3 -5 3 -3.2 0 -3.5 -0.3 -3.5 -2.9z"/>
  <path d="M244 376 c0 -3.9 0.1 -4 3.5 -4 1.9 0 3.5 -0.4 3.5 -1 0 -0.5 1.5 -1 3.4 -1 3.1 0 3.4 0.3 3.9 3.6 0.9 5.1 -0.8 6.4 -8.2 6.4 l-6.1 0 0 -4z"/>
  <path d="M233.5 341.5 c-0.5 -0.2 -2.7 -0.6 -4.7 -1 -2.9 -0.4 -3.8 -1.1 -3.8 -2.5 0 -1.6 -0.7 -2 -3.5 -2 -2.8 0 -3.5 -0.4 -3.5 -2 0 -1.2 -0.7 -2 -1.8 -2 -2.6 0 -5.2 -3.6 -5.2 -7 0 -2.7 0.3 -3 3.1 -3 4.4 0 6.9 1.7 6.9 4.5 0 1.8 0.5 2.5 2 2.5 1.3 0 2 0.7 2 2 0 1.8 0.7 2 6 2 3.3 0 6 0.4 6 1 0 0.6 0.9 1 2 1 1.6 0 2 0.7 2 3.5 0 3.3 -0.2 3.5 -3.2 3.4 -1.8 0 -3.7 -0.2 -4.3 -0.4z"/>
  <path d="M242 337 c0 -3.9 0.1 -4 3.5 -4 3.4 0 3.5 0.1 3.5 4 0 3.9 -0.1 4 -3.5 4 -3.4 0 -3.5 -0.1 -3.5 -4z"/>
  <path d="M135.6 329.8 c-0.8 -3 -0.8 -223.6 0 -226.6 0.4 -1.2 1.3 -2.2 2 -2.2 1.2 0 1.4 17.8 1.4 115.5 0 97.7 -0.2 115.5 -1.4 115.5 -0.7 0 -1.6 -1 -2 -2.2z"/>
  <path d="M181 312 c0 -3.9 0.1 -4 3.5 -4 3.4 0 3.5 0.1 3.5 4 0 3.9 -0.1 4 -3.5 4 -3.4 0 -3.5 -0.1 -3.5 -4z"/>
  <path d="M281.3 290.9 c0.8 -1.1 3 -3.1 4.8 -4.5 1.8 -1.3 2.8 -2.4 2.2 -2.4 -0.7 0 -1.5 0.5 -1.8 1 -1 1.6 -3.5 1.2 -3.5 -0.5 0 -2 2.3 -2.9 5.5 -2.1 2 0.5 2.5 1.3 2.5 3.7 0 1.9 -0.6 3.2 -1.7 3.6 -1 0.4 -2.2 1.2 -2.6 2 -0.4 0.7 -2.2 1.3 -3.8 1.3 -2.8 0 -2.9 -0.1 -1.6 -2.1z"/>
  <path d="M350 288.1 c0 -1 4.3 -5.8 7.3 -8 1.5 -1.2 1.7 -1 1.7 1.8 0 2.4 -0.4 3.1 -2 3.1 -1.3 0 -2 0.7 -2 2 0 1.5 -0.7 2 -2.5 2 -1.4 0 -2.5 -0.4 -2.5 -0.9z"/>
  <path d="M82 276 c-1.3 -0.9 -1.3 -1.1 0 -2 2.2 -1.5 3 -1.2 3 1 0 2.2 -0.8 2.5 -3 1z"/>
  <path d="M110 274.6 c0 -2.3 0.2 -2.4 3.2 -1.5 1.8 0.5 3.5 0.9 3.7 0.9 0.2 0 -0.2 0.7 -0.9 1.5 -0.7 0.8 -2.3 1.5 -3.6 1.5 -1.9 0 -2.4 -0.5 -2.4 -2.4z"/>
  <path d="M96 262.2 c0 -0.5 0.6 -1.7 1.4 -2.7 1.3 -1.8 1.4 -1.8 2.5 0.3 1.6 2.9 1.4 3.2 -1.4 3.2 -1.4 0 -2.5 -0.4 -2.5 -0.8z"/>
  <path d="M381 256.4 c0 -0.3 1.3 -1.9 3 -3.7 l3 -3.2 0 3.8 c0 3.5 -0.2 3.7 -3 3.7 -1.6 0 -3 -0.2 -3 -0.6z"/>
  <path d="M167 225 c0 -7.3 0.2 -8 2 -8 1.8 0 2 0.7 2 8 0 7.3 -0.2 8 -2 8 -1.8 0 -2 -0.7 -2 -8z"/>
  <path d="M372.8 230.3 c-1 -0.2 -1.8 -1.3 -1.8 -2.4 0 -1.5 0.7 -1.9 3.5 -1.9 3.1 0 3.5 0.3 3.5 2.5 0 2.5 -1.1 2.9 -5.2 1.8z"/>
  <path d="M332 204.5 c0 -19.8 0.1 -20.5 2 -20.5 1.9 0 2 0.7 2 20.5 0 19.8 -0.1 20.5 -2 20.5 -1.9 0 -2 -0.7 -2 -20.5z"/>
  <path d="M209.2 205.2 c-1.5 -5 -4.9 -8.3 -6.2 -6.2 -0.7 1.1 -1 0.6 -1 -1.8 0 -3.2 0.1 -3.3 3.8 -3 3.2 0.3 3.7 0.7 4 3.1 0.2 1.5 0.9 2.7 1.8 2.7 1 0 1.4 1.3 1.4 4.5 0 5.7 -2.2 6.1 -3.8 0.7z"/>
  <path d="M251.5 205.1 c-0.3 -1.6 -1.7 -4.1 -3.1 -5.6 -3.3 -3.5 -3 -4.5 1.1 -4.5 2.8 0 3.5 0.4 3.5 2 0 1.1 0.5 2 1 2 0.6 0 1 2 1 4.5 0 5.3 -2.4 6.4 -3.5 1.6z"/>
  <path d="M292.7 201.3 c-0.4 -0.3 -0.7 -1.5 -0.7 -2.5 0 -1.1 -0.7 -1.8 -2 -1.8 -1.6 0 -2 -0.7 -2 -3.5 0 -3.3 0.2 -3.5 3.5 -3.5 2.4 0 3.5 0.5 3.5 1.5 0 1.7 4.5 2.1 5.5 0.5 0.3 -0.5 2.2 -1 4.1 -1 4.2 0 4.5 2 0.8 5.6 -2 2.1 -3.3 2.5 -6.4 2.2 -2.6 -0.2 -3.6 0 -3 0.6 0.6 0.6 1 1.4 1 1.8 0 1 -3.4 1.1 -4.3 0.1z"/>
  <path d="M332 165 c0 -5.3 0.2 -6 2 -6 1.8 0 2 0.7 2 6 0 5.3 -0.2 6 -2 6 -1.8 0 -2 -0.7 -2 -6z"/>
  <path d="M188 159.5 c0 -3.2 0.2 -3.5 3 -3.5 2.8 0 3 0.3 3 3.5 0 3.2 -0.2 3.5 -3 3.5 -2.8 0 -3 -0.3 -3 -3.5z"/>
  <path d="M188 144 l0 -9 3 0 3 0 0 9 0 9 -3 0 -3 0 0 -9z"/>
  <path d="M240.7 144.5 c-1.4 -3 -1.5 -3.5 -0.2 -3.5 0.8 0 1.5 -0.9 1.5 -2 0 -1.7 0.7 -2 4.7 -2 l4.6 0 -1.9 2.2 c-1 1.2 -2.4 2.8 -3.1 3.5 -0.6 0.7 -1.5 2.2 -1.8 3.3 -0.9 2.9 -1.9 2.5 -3.8 -1.5z"/>
  <path d="M332 118 c0 -6.3 0.2 -7 2 -7 1.8 0 2 0.7 2 7 0 6.3 -0.2 7 -2 7 -1.8 0 -2 -0.7 -2 -7z"/>
 </g>
 <g fill="#11210f">
  <path d="M96.5 261 c0.3 -0.5 1.2 -1 2 -1 0.8 0 1.7 0.5 2 1 0.4 0.6 -0.5 1 -2 1 -1.5 0 -2.4 -0.4 -2 -1z"/>
  <path d="M394 224 c0 -2.8 -0.3 -3 -3.5 -3 -3.1 0 -3.5 -0.3 -3.5 -2.5 0 -1.4 0.3 -2.5 0.8 -2.5 1.7 0 7.6 4.9 11.1 9.3 1.2 1.5 1 1.7 -1.8 1.7 -2.8 0 -3.1 -0.3 -3.1 -3z"/>
  <path d="M304 192 c0 -1.3 0.7 -2 2 -2 1.3 0 2 0.7 2 2 0 1.3 -0.7 2 -2 2 -1.3 0 -2 -0.7 -2 -2z"/>
  <path d="M253.2 131.8 c0.2 -2.8 0.7 -3.4 3.1 -3.6 1.5 -0.2 2.7 0 2.7 0.3 0 1.5 -2.2 4.5 -4.1 5.5 -1.9 1.1 -2 0.9 -1.7 -2.2z"/>
  <path d="M240 124.4 c0 -2.1 0.3 -2.4 1.3 -1.6 1 0.9 1.9 0.7 3.5 -0.4 2.1 -1.5 2.2 -1.4 2.2 1.5 0 2.9 -0.3 3.1 -3.5 3.1 -3.1 0 -3.5 -0.3 -3.5 -2.6z"/>
  <path d="M255 122 c0 -2.7 0.2 -2.9 1.9 -1.8 1.1 0.7 2.2 2 2.4 3 0.4 1.4 -0.1 1.8 -1.9 1.8 -2 0 -2.4 -0.5 -2.4 -3z"/>
  <path d="M291 98.4 c0 -2.1 1.8 -5.4 3 -5.4 0.6 0 1 1.6 1 3.5 0 2.8 -0.4 3.5 -2 3.5 -1.1 0 -2 -0.7 -2 -1.6z"/>
 </g>
 <g fill="#08211b">
  <path d="M238 436.9 c-4.1 -0.4 -7.6 -1.2 -7.8 -1.7 -0.1 -0.5 -1.2 -0.8 -2.2 -0.5 -2.5 0.7 -16 -3.4 -16 -4.8 0 -0.6 -0.4 -0.7 -1 -0.4 -0.5 0.3 -1 0 -1 -0.7 0 -1.1 -0.2 -1.1 -0.9 0 -0.7 1.1 -1.1 1.1 -2.2 -0.1 -0.8 -0.7 -1.9 -1.2 -2.6 -1 -1.8 0.6 -13.3 -5.6 -13.3 -7.2 0 -1.1 1.1 -1.5 4.1 -1.5 3.2 0 4.2 0.4 4.6 2 0.4 1.5 1.4 2 4.1 2 3.6 0 19.2 4.7 20.2 6.1 0.3 0.4 3 1 6 1.3 20.9 2.2 19.5 1.9 19.8 4.9 0.4 3.1 0.9 3 -11.8 1.6z"/>
  <path d="M268 434 c0 -2.9 0.2 -3 4.5 -3 4.1 0 4.5 0.2 4.5 2.4 0 2.4 -2.1 3.6 -6.7 3.6 -1.9 0 -2.3 -0.6 -2.3 -3z"/>
  <path d="M278 432.9 c0 -2.8 0.2 -2.9 4.5 -2.9 3.8 0 4.5 0.3 4.5 2 0 1.1 -0.3 2 -0.7 2 -0.5 0 -2.5 0.4 -4.5 0.9 -3.7 0.9 -3.8 0.8 -3.8 -2z"/>
  <path d="M297 427 c0 -2.9 0.2 -3 4.5 -3 5.6 0 6.2 2.4 1 4.6 -4.8 2 -5.5 1.8 -5.5 -1.6z"/>
  <path d="M233.5 422.5 c-2.2 -0.8 -5.1 -1.5 -6.5 -1.5 -1.4 0 -3.7 -0.6 -5.1 -1.4 -1.4 -0.7 -4.2 -1.6 -6.2 -2 -3.4 -0.6 -3.7 -1 -3.7 -4.1 0 -3.4 0.1 -3.5 3.8 -3.5 2.1 0 6.5 0.9 9.8 1.9 12 4 34.9 5.5 43.7 3 1.7 -0.5 4.4 -0.9 5.9 -0.9 2.5 0 2.8 0.4 2.8 3.3 0 3.3 -0.2 3.4 -6 5 -7.8 2.2 -32.6 2.3 -38.5 0.2z m19.8 -3.2 c-1.3 -0.2 -3.5 -0.2 -5 0 -1.6 0.2 -0.5 0.4 2.2 0.4 2.8 0 4 -0.2 2.8 -0.4z"/>
  <path d="M281 415.7 c0 -3.1 0.3 -3.3 5.9 -5 3.3 -1 8 -2.9 10.6 -4.2 2.5 -1.4 5.5 -2.5 6.6 -2.5 1 0 1.9 -0.4 1.9 -0.9 0 -0.4 2.4 -2.4 5.3 -4.3 2.9 -1.9 9.5 -7.7 14.6 -12.9 7.8 -7.8 10.1 -10.8 13.3 -17.7 4.9 -10.3 6.5 -16.5 7.4 -28.1 l0.7 -9.1 3.3 0 3.4 0 -0.1 7.8 c-0.1 9.8 -1.9 21.8 -3.9 26.7 -3.6 8.6 -8.7 17.9 -10.6 19.4 -1.3 1.1 -2.4 2.4 -2.4 3 0 2.1 -15.5 16.3 -20.4 18.7 -2.8 1.3 -5.5 2.4 -6.2 2.4 -0.7 0 -1.4 0.3 -1.6 0.8 -1.1 2.5 -19.2 9.2 -24.9 9.2 -2.6 0 -2.9 -0.3 -2.9 -3.3z"/>
  <path d="M324 412.8 c0 -1.8 0.4 -3.9 0.9 -4.7 1.1 -1.8 12.1 -2.9 12.1 -1.3 0 1.3 -10.2 9.2 -11.8 9.2 -0.7 0 -1.2 -1.4 -1.2 -3.2z"/>
  <path d="M171.6 408.6 c-15.3 -12.8 -25.5 -27.6 -32.7 -47.6 l-2.4 -6.5 -0.3 -103.7 c-0.3 -103.7 -0.3 -103.8 1.8 -103.8 2 0 2 0.5 2 44.3 0.2 134.6 0.5 165 1.8 165.4 0.6 0.3 1.2 1.8 1.2 3.4 0 1.6 0.5 2.9 1 2.9 0.6 0 1 0.9 1 2 0 1.1 0.4 2 1 2 0.5 0 1.3 1.8 1.6 4 0.4 2.2 1.2 4 1.9 4 0.6 0 1.8 1.2 2.6 2.8 0.8 1.5 2.2 3.6 3.2 4.7 1 1.1 2 3 2.3 4.2 0.4 1.3 1.2 2.3 1.8 2.3 0.7 0 1.9 1.2 2.7 2.8 0.8 1.5 2.4 3.6 3.6 4.7 1.3 1.1 2.3 3.1 2.3 4.3 0 1.8 0.6 2.2 3.1 2.2 2.2 0 3.2 0.5 3.6 2 0.3 1.1 1.4 2 2.4 2 2.3 0 3.2 1.8 2.7 5.5 -0.3 2.6 -0.4 2.5 -8.2 -3.9z"/>
  <path d="M342.3 400.3 c-0.7 -0.3 -1.3 -2 -1.3 -3.8 0 -1.9 0.6 -3.8 1.3 -4.2 0.6 -0.4 1.7 -1.7 2.3 -2.8 0.8 -1.4 2.3 -2.1 5.3 -2.3 2.2 -0.2 4.1 0 4.1 0.4 0 0.9 -6.5 9.7 -8.7 11.5 -1 0.9 -2.4 1.4 -3 1.2z"/>
  <path d="M242.9 379.8 c-0.1 -0.2 -0.3 -3.8 -0.5 -8.2 -0.2 -5.6 -0.8 -8.4 -2 -9.7 -1.5 -1.7 -1.6 -2.7 -0.6 -8.6 0.7 -3.8 1.4 -7.7 1.7 -8.8 0.5 -1.8 -0.3 -2.2 -8.7 -3.8 -9.3 -1.8 -16.3 -5.2 -17.6 -8.7 -0.3 -0.8 -2 -2.8 -3.8 -4.5 -1.7 -1.6 -3.7 -4.7 -4.4 -6.7 -1 -2.8 -2 -3.8 -3.9 -4 -2.2 -0.3 -2.6 -0.9 -2.9 -4 l-0.3 -3.8 5 0 c4.4 0 5.1 0.3 5.1 2 0 1.3 0.7 2 2 2 1.1 0 2 0.4 2 0.9 0 0.5 2.8 3.7 6.2 7.2 5.6 5.5 14.1 10.9 17.6 10.9 0.6 0 1.2 0.7 1.2 1.6 0 1.4 0.1 1.4 1.6 0 2.3 -2.3 9.1 -2.1 10.4 0.3 1.4 2.7 1.3 7.5 -0.3 11.4 -0.8 1.8 -2.2 7.3 -3.2 12.4 -1.5 7.6 -1.6 9.4 -0.6 10.7 1.7 2 4 2 4.7 0.1 0.4 -0.9 1.9 -1.5 3.8 -1.5 l3.1 0 0.1 5.9 0.2 5.9 -3.7 0.6 c-3.6 0.6 -12 0.8 -12.2 0.4z m11.1 -3.8 c0 -0.5 -0.7 -1 -1.5 -1 -0.8 0 -1.5 0.5 -1.5 1 0 0.6 0.7 1 1.5 1 0.8 0 1.5 -0.4 1.5 -1z"/>
  <path d="M357.3 369.3 c1.5 -9.9 1.7 -10.3 5.3 -10.3 3.2 0 3.4 0.2 2.8 2.8 -2.4 9.8 -2.9 10.7 -5.8 11 -2.7 0.3 -2.8 0.2 -2.3 -3.5z"/>
  <path d="M254 358.6 c0 -3.3 0.2 -3.6 3.1 -3.6 2.8 0 3 0.2 2.7 3.3 -0.2 2.7 -0.8 3.3 -3 3.5 -2.6 0.3 -2.8 0.1 -2.8 -3.2z"/>
  <path d="M363.3 353.3 c-1 -0.3 -1.3 -3.8 -1.3 -12.4 l0 -11.9 3 0 3 0 0 10.3 c0 14 -0.6 15.7 -4.7 14z"/>
  <path d="M148 330.5 l0 -12.5 2.4 0 c3.1 0 3.6 2 3.6 14.8 l0 10.2 -3 0 -3 0 0 -12.5z"/>
  <path d="M346.8 309.8 c-0.4 -17.5 -0.4 -18.4 1.6 -20.5 1.2 -1.2 3.7 -3.8 5.6 -5.9 l3.5 -3.8 0.3 3.2 c0.2 2.1 -0.3 3.7 -1.7 5.1 -2 2 -2.1 3.3 -2.1 21.1 l0 19 -3.4 0 -3.4 0 -0.4 -18.2z"/>
  <path d="M362 322.5 c0 -5.4 0 -5.5 3 -5.5 3 0 3 0.1 3 5.5 0 5.4 0 5.5 -3 5.5 -3 0 -3 -0.1 -3 -5.5z"/>
  <path d="M226.7 319.3 c-1 -0.9 -0.9 -7.3 0.1 -7.3 0.4 0 2.6 1.8 4.7 4 l3.9 4 -4 0 c-2.3 0 -4.4 -0.3 -4.7 -0.7z"/>
  <path d="M178.4 314.1 c-2.1 -1.6 -5.4 -4.4 -7.2 -6.3 -3.2 -3.4 -3.3 -3.6 -3.8 -15.4 -0.3 -6.5 -0.9 -12.3 -1.3 -12.7 -0.5 -0.4 -3.5 -0.7 -6.7 -0.5 l-5.9 0.3 0 5 c0 4.7 -0.2 5 -2.7 5.3 -2.8 0.3 -2.8 0.3 -2.8 -5.7 0 -5.4 0.2 -6.1 2 -6.1 1.3 0 2 -0.7 2 -2 0 -2.5 2.7 -3.2 10.5 -2.8 6 0.3 6 0.3 6.3 3.6 0.2 1.7 0.7 3.2 1.3 3.2 0.5 0 0.9 1.2 0.9 2.6 0 6.6 2.4 10.8 10.7 19 7.4 7.2 8.3 8.5 8.3 11.8 0 3.5 -0.1 3.6 -3.8 3.6 -2.7 0 -5.1 -0.9 -7.8 -2.9z"/>
  <path d="M250 313.8 c1.9 -3.2 2 -5.2 2 -57.5 0 -35.6 -0.3 -54.3 -1 -54.3 -0.5 0 -1 -1 -1 -2.2 0 -1.2 -0.3 -1.8 -0.6 -1.5 -0.4 0.3 -1.5 0.2 -2.5 -0.4 -1.5 -0.7 -2.1 -0.6 -2.5 0.6 -0.3 0.8 -1.7 1.5 -3 1.5 -2.2 0 -2.4 -0.4 -2.4 -4.5 0 -4.2 0.2 -4.5 2.8 -4.5 4.5 0 10.4 2.6 12.5 5.4 1.8 2.5 1.9 5.1 2 59.4 0.1 61.7 0.1 61.2 -5.3 61.2 l-3 0 2 -3.2z"/>
  <path d="M270.1 301.3 c0 -0.5 4.2 -4.4 9.4 -8.8 5.2 -4.4 9.2 -8.2 8.9 -8.4 -0.2 -0.3 -1 0.1 -1.6 0.7 -0.7 0.7 -1.8 1.2 -2.5 1.2 -2 0 1.5 -4.5 4.5 -5.9 3.3 -1.6 7.3 -1.4 6.6 0.3 -0.4 1 0.6 1.2 4.5 0.8 4.4 -0.4 5.3 -0.1 7.6 2.2 3.3 3.3 2.8 6.6 -1.5 11.1 -2.1 2.1 -2.7 3.4 -2 4.5 1.3 2.1 0.3 3 -3.6 3 -3.2 0 -3.4 -0.2 -3.4 -3.5 0 -1.9 0.5 -3.5 1 -3.5 0.6 0 1 -1.1 1 -2.5 0 -1.4 0.9 -3 1.9 -3.7 1.5 -0.9 1.7 -1.6 0.9 -2.5 -0.8 -1 -1.7 -1 -4.4 0.2 -1.8 0.7 -3.9 1.9 -4.6 2.5 -1.9 1.5 -8.8 6 -9.4 6 -0.2 0 -1.8 1.6 -3.5 3.5 -2.4 2.7 -3.9 3.5 -6.5 3.5 -1.9 0 -3.4 -0.3 -3.3 -0.7z"/>
  <path d="M191 298 c0 -1.7 -0.7 -2 -4 -2 -3.9 0 -4 -0.1 -4 -3.5 0 -4.4 1.3 -4.4 5.3 -0.1 4.3 4.4 9.5 5.4 14.8 2.8 l3.9 -1.9 0 2.7 c0 3.3 -1.8 4 -10.2 4 -5.1 0 -5.8 -0.2 -5.8 -2z"/>
  <path d="M264 291.4 c0 -4.3 0.1 -4.5 2.7 -4.2 2.3 0.3 2.7 0.8 3 4.6 0.4 4.1 0.3 4.2 -2.6 4.2 -3 0 -3.1 -0.1 -3.1 -4.6z"/>
  <path d="M209.3 288.5 c0.6 -1.9 1.6 -3.5 2.4 -3.5 0.8 0 1.3 1.3 1.3 3.5 0 3 -0.3 3.5 -2.4 3.5 -2.3 0 -2.4 -0.2 -1.3 -3.5z"/>
  <path d="M96.4 288.3 c-0.3 -1.6 -0.7 -3.4 -1 -4 -0.2 -0.9 0.8 -1.3 3 -1.3 3.1 0 3.3 0.2 2.8 2.8 -1 5.4 -3.8 6.9 -4.8 2.5z"/>
  <path d="M265.2 285.2 c-1 -0.7 -1.2 -9.8 -1 -43 0.2 -31.2 0 -42.2 -0.8 -42.2 -1.5 0 -2.4 -2.3 -2.4 -6 0 -2.2 -0.5 -2.9 -2.2 -3.2 -1.9 -0.2 -2.4 -1 -2.6 -4 -0.2 -2.2 0.1 -3.8 0.7 -3.8 0.6 0 1.1 -1.7 1.1 -3.9 l0 -3.9 6.3 -0.6 c7.8 -0.9 19.7 1 19.7 3 0 0.8 0.5 1.4 1 1.4 1.7 0 7 4.3 7 5.6 0 0.6 0.7 1.4 1.5 1.8 0.8 0.3 1.5 1.1 1.5 1.8 0 1.4 5.3 4.8 7.6 4.8 0.8 0 1.4 0.4 1.4 1 0 1.5 -3.3 2.8 -6.4 2.3 -2.5 -0.3 -2.8 -0.1 -2.3 1.6 0.4 1.8 0 2.1 -2.4 2.1 -2.2 0 -3 -0.6 -3.5 -2.5 -0.3 -1.4 -1 -2.5 -1.5 -2.5 -0.5 0 -0.9 -0.7 -0.9 -1.5 0 -0.8 -0.7 -1.5 -1.5 -1.5 -0.8 0 -1.5 -0.7 -1.5 -1.6 0 -1.1 0.6 -1.5 2 -1.1 2 0.5 2 0.5 -0.1 -2.4 -1.1 -1.6 -3.3 -3.6 -4.9 -4.4 -3.6 -1.9 -4.1 -1.9 -3.4 0 0.4 1 0 1.5 -1.5 1.5 -1.2 0 -2.1 -0.4 -2.1 -1 0 -0.5 -1.1 -1.2 -2.5 -1.6 -1.4 -0.3 -2.5 -1 -2.5 -1.5 0 -1.2 -3 -1.1 -6.9 0.2 -1.7 0.6 -3.1 1.7 -3.1 2.5 0 0.8 1.6 3.5 3.6 6.1 7.1 9.2 6.9 7.6 7.2 51.3 0.2 21.7 0.1 41 -0.3 42.8 -0.6 3.2 -1.9 3.9 -4.3 2.4z"/>
  <path d="M86.5 277.5 c-4.9 -1.4 -5.2 -3.6 -0.6 -4.8 4 -1 5.4 0 4.9 3.5 -0.3 2.3 -0.5 2.3 -4.3 1.3z"/>
  <path d="M109 274.7 c0 -2.2 0.4 -2.8 1.6 -2.3 0.9 0.3 2.3 0.6 3.2 0.6 1.5 0 1.5 0.2 0.2 1 -1 0.6 -1.1 1 -0.2 1 2.5 0 1.1 1.8 -1.8 2.2 -2.8 0.4 -3 0.2 -3 -2.5z"/>
  <path d="M363.9 273.2 c1.1 -1.6 5.9 -6.4 10.6 -10.8 10.1 -9.3 12.5 -12.8 12.5 -18 0 -5.1 -2.8 -9.4 -7.6 -11.9 -2.1 -1.1 -4 -2.3 -4.2 -2.6 -0.4 -0.8 -4.3 0.1 -5.9 1.3 -0.6 0.5 -0.9 1.6 -0.6 2.4 0.4 1 -0.4 1.4 -3.1 1.4 -3.4 0 -3.6 -0.1 -3.6 -3.5 0 -1.9 0.5 -3.5 1 -3.5 0.6 0 1 -0.7 1 -1.5 0 -1.2 1.4 -1.5 7 -1.5 4 0 7 0.4 7 1 0 0.6 0.9 1 2.1 1 2.9 0 7.6 3.5 9.4 7 1.7 3.3 2.1 17 0.5 17 -0.5 0 -1 0.9 -1 2.1 0 1.2 -0.8 2.3 -2 2.6 -1.1 0.3 -2 1.2 -2 1.9 0 0.9 -1.1 1.4 -3 1.4 -2.6 0 -3 0.4 -3 2.6 0 3.9 -10.4 14.4 -14.3 14.4 l-2.8 0 2 -2.8z"/>
  <path d="M388.3 272.3 c-1.8 -0.6 -1.7 -7.2 0.1 -7.9 0.8 -0.3 3 -0.4 5 -0.2 l3.7 0.3 -3.8 4.1 c-2.1 2.3 -4.4 3.9 -5 3.7z"/>
  <path d="M95.8 263.9 c0.5 -3.1 2.7 -4.9 4.1 -3.3 0.5 0.5 1.1 2.1 1.5 3.7 0.6 2.5 0.4 2.7 -2.7 2.7 -3.2 0 -3.3 -0.2 -2.9 -3.1z"/>
  <path d="M154 262.9 c0 -1.9 0.5 -2 6.5 -1.7 5.4 0.2 6.5 0.5 6.5 2 0 1.5 -0.9 1.8 -6.5 1.8 -5.9 0 -6.5 -0.2 -6.5 -2.1z"/>
  <path d="M335.5 260 c0.3 -0.6 -0.3 -2.2 -1.5 -3.7 -2 -2.6 -2.1 -3.7 -1.9 -21.3 0.3 -20.3 0.5 -22 2.5 -22 1.1 0 1.4 3.3 1.4 17.5 l0 17.5 4 0 4 0 0 4.1 c0 3.2 -0.6 4.7 -2.6 6.5 -2.4 2.3 -7.1 3.4 -5.9 1.4z"/>
  <path d="M167 245.8 c0 -15.5 0.5 -18.8 2.6 -18.8 1.1 0 1.4 3.1 1.4 16.5 0 15.8 -0.1 16.5 -2 16.5 -1.9 0 -2 -0.7 -2 -14.2z"/>
  <path d="M148 246.5 c0 -8.3 0.1 -8.5 2.4 -8.5 2 0 2.5 0.6 2.9 3.8 0.3 2 0.6 5.8 0.6 8.5 0.1 4.6 0 4.7 -2.9 4.7 l-3 0 0 -8.5z"/>
  <path d="M223.3 253.3 c-0.9 -0.3 -1.3 -2.9 -1.3 -7.9 l0 -7.4 4.5 0 4.5 0 0 6.6 c0 5.6 -0.2 6.5 -1.6 6 -1.1 -0.4 -1.8 0.1 -2.1 1.4 -0.5 2 -1.6 2.3 -4 1.3z"/>
  <path d="M395 227.1 c0 -2.5 -0.4 -3 -2.7 -3.3 -2.3 -0.2 -2.9 -0.8 -3.1 -3.6 -0.3 -3.1 -0.2 -3.2 2.1 -2.1 1.4 0.6 4 3 5.9 5.3 5.3 6.4 5.4 6.6 1.4 6.6 -3.3 0 -3.6 -0.2 -3.6 -2.9z"/>
  <path d="M167.6 220.8 c-0.3 -1.3 -0.6 -5.6 -0.6 -9.5 0 -8.1 2.2 -15.3 6.4 -20.8 2.6 -3.3 2.6 -3.6 2.6 -20.4 0 -16.6 0.1 -17.1 2.1 -17.1 2 0 2.1 0.3 1.7 18.8 -0.3 18.6 -0.3 18.9 -3 22.3 -4.5 6 -5.8 10.4 -5.8 20 0 6.9 -0.3 8.9 -1.4 8.9 -0.7 0 -1.6 -1 -2 -2.2z"/>
  <path d="M348 218 c0 -1.6 0.5 -3 1 -3 0.6 0 1 0.5 1 1 0 1.5 2.2 1.2 6.8 -1 2.2 -1.1 4.8 -2 5.7 -2 0.8 0 1.5 0.9 1.5 2 0 1.5 -0.7 2 -2.5 2 -1.4 0 -2.5 0.5 -2.5 1 0 0.6 -0.9 1 -2 1 -1.1 0 -2 0.5 -2 1 0 0.6 -1.6 1 -3.5 1 -3.2 0 -3.5 -0.2 -3.5 -3z"/>
  <path d="M210 211.5 c0 -4.7 -0.4 -8.5 -0.9 -8.5 -0.5 0 -1.4 -1.3 -1.9 -3 -0.8 -2.1 -1.6 -2.8 -2.6 -2.4 -0.9 0.3 -1.6 1.2 -1.6 2 0 0.8 -0.9 1.4 -2.1 1.4 -1.7 0 -2 -0.5 -1.7 -3.7 l0.3 -3.8 5 0 c4.7 0 5 0.2 7.2 4 1.9 3.4 2.3 5.5 2.3 13.3 0 8.5 -0.1 9.2 -2 9.2 -1.8 0 -2 -0.7 -2 -8.5z"/>
  <path d="M375.8 216.3 c-1 -0.2 -1.8 -1.4 -1.8 -2.5 0 -1.8 0.4 -2 4.1 -1.4 8.2 1.3 10.9 4.7 3.7 4.5 -2.4 -0.1 -5.1 -0.3 -6 -0.6z"/>
  <path d="M344 197.5 c0 -4.3 0.1 -4.5 3 -4.5 2.9 0 3 0.2 3 4.5 0 4.3 -0.1 4.5 -3 4.5 -2.9 0 -3 -0.2 -3 -4.5z"/>
  <path d="M302 174.5 l0 -15.5 3 0 3 0 0 15.5 0 15.5 -3 0 -3 0 0 -15.5z"/>
  <path d="M332.6 187.3 c-0.3 -1.6 -0.5 -21 -0.5 -43.3 0.1 -26.7 -0.3 -41.4 -1 -43.3 -1.2 -3 -4.2 -4.8 -4.9 -2.9 -0.2 0.7 -1 1.2 -1.8 1.2 -1.1 0 -1.4 -1 -1.2 -3.7 0.3 -3.7 0.4 -3.8 4.4 -4.1 3.7 -0.3 4.5 0.1 6.3 2.7 2.1 2.9 2.1 3.7 2.1 49.5 0 39.6 -0.2 46.6 -1.4 46.6 -0.8 0 -1.7 -1.2 -2 -2.7z"/>
  <path d="M218 186.3 c0.1 -1.3 7.8 -6.4 11 -7.3 2.7 -0.8 3 -0.6 3 1.5 0 1.8 -0.7 2.5 -2.9 3 -1.6 0.3 -3.2 1.3 -3.5 2.1 -0.6 1.4 -7.6 2.1 -7.6 0.7z"/>
  <path d="M195.5 181.3 c-3.1 -0.3 -5.5 -1 -6.2 -2 -0.9 -1.2 -1.3 -6.3 -1.3 -17 0 -12.9 0.2 -15.3 1.5 -15.3 0.8 0 1.5 0.7 1.5 1.5 0 0.8 0.7 1.5 1.5 1.5 2.3 0 2.1 8.7 -0.2 9.3 -1.7 0.4 -1.7 0.5 0 0.6 1.5 0.1 1.7 1.2 1.7 8.5 l0 8.3 5.3 0.7 c7.8 1 9.7 1.7 9.7 3.2 0 1.4 -1.9 1.5 -13.5 0.7z"/>
  <path d="M234 179.5 c0 -1.6 4.7 -2.7 9.7 -2.3 2.4 0.2 3.3 0.8 3.3 2.1 0 1.4 -1 1.7 -6.5 1.7 -5 0 -6.5 -0.3 -6.5 -1.5z"/>
  <path d="M279 168.5 c0 -2.9 1 -3.1 5.6 -0.9 4.6 2.2 4.3 3.4 -1.1 3.4 -4.1 0 -4.5 -0.2 -4.5 -2.5z"/>
  <path d="M263 167 c0 -1.5 3.6 -3 7.2 -3 4.8 0 7.8 1 7.8 2.6 0 1.1 -1.8 1.4 -7.5 1.4 -4.2 0 -7.5 -0.4 -7.5 -1z"/>
  <path d="M290 139.5 c0 -27.8 0 -28.5 2 -28.5 2 0 2 0.7 2 28.5 0 27.8 0 28.5 -2 28.5 -2 0 -2 -0.7 -2 -28.5z"/>
  <path d="M188 134 l0 -11 3 0 3 0 0 7.4 c0 6.3 -0.3 7.5 -1.7 7.9 -1.7 0.4 -1.7 0.5 0 0.6 2.1 0.1 2.3 3.1 0.2 3.1 -0.8 0 -1.5 0.7 -1.5 1.5 0 0.8 -0.7 1.5 -1.5 1.5 -1.2 0 -1.5 -1.9 -1.5 -11z"/>
  <path d="M234 136.9 c-7.9 -8.3 -8.6 -9.8 -6.9 -13.5 2.1 -4.1 3.9 -4.2 3.9 -0.2 0 2.5 0.8 3.9 3 5.7 2.4 1.9 3 3.1 3 6.2 0 3.4 0.3 3.9 2.3 3.9 1.4 0 2.6 -0.9 3.2 -2.2 0.7 -1.6 2 -2.4 4.3 -2.6 2.6 -0.3 3.2 -0.7 3.2 -2.8 0 -1.7 0.5 -2.4 2 -2.4 1.4 0 2 -0.7 2 -2.4 0 -2.6 -1.6 -3.6 -6.2 -3.6 -3.1 0 -3.1 0 -1.3 -2 4.4 -4.9 14.7 0.1 13.2 6.2 -0.8 3.1 -10.6 12.8 -12.8 12.8 -1.2 0 -1.6 0.6 -1.2 2 0.4 1.7 0.1 2 -2.3 1.9 -2.2 -0.1 -4.5 -1.9 -9.4 -7z"/>
  <path d="M136.1 114.3 c0 -16 1.1 -22.2 3.8 -23.1 1.1 -0.4 1.3 0.5 0.8 4.9 -0.4 3 -0.7 11.8 -0.7 19.7 0 13.5 -0.1 14.2 -2 14.2 -1.9 0 -2 -0.6 -1.9 -15.7z"/>
  <path d="M176 115.8 c0 -12.9 -1 -17 -4.4 -17.6 -1 -0.2 -2.2 0.1 -2.6 0.8 -0.6 0.9 -1.3 0.9 -2.8 0.1 -1.1 -0.6 -3.7 -1.1 -5.6 -1.1 -3.3 0 -3.6 -0.2 -3.6 -3.1 0 -4.9 2.2 -6.3 8.8 -5.5 7.3 0.9 11.4 3.3 12.9 7.6 0.7 2 1.2 9.3 1.2 17.3 0.1 13.1 0 13.7 -1.9 13.7 -1.9 0 -2 -0.7 -2 -12.2z"/>
  <path d="M234.3 123.5 c-4.2 -4.7 1.7 -6.2 6.2 -1.5 l2.9 3 -4 0 c-2.1 -0.1 -4.5 -0.7 -5.1 -1.5z"/>
  <path d="M344 118.5 c0 -5.4 0 -5.5 3 -5.5 3 0 3 0.1 3 5.5 0 5.4 0 5.5 -3 5.5 -3 0 -3 -0.1 -3 -5.5z"/>
  <path d="M290.4 103.8 c0.3 -3.4 1.7 -8.5 3 -11.3 2.3 -5.2 9 -13.5 10.7 -13.5 2 0 0.8 5.4 -1.8 7.9 -3.9 3.7 -7 10.7 -7.8 17.4 -0.6 4.8 -1 5.7 -2.8 5.7 -1.8 0 -1.9 -0.4 -1.3 -6.2z"/>
  <path d="M187.4 101.3 c-0.5 -3.9 -1.4 -6.5 -3 -8.2 -1.3 -1.4 -2.4 -3.8 -2.4 -5.3 0 -2.2 -0.5 -2.7 -2.7 -3 -2.3 -0.2 -2.9 -0.8 -3.1 -3.5 -0.2 -1.8 0 -3.3 0.3 -3.3 1.9 0 8.7 6 11.5 10.1 3.2 4.7 6 12.4 6 16.6 0 1.9 -0.5 2.3 -2.9 2.3 -2.8 0 -3 -0.2 -3.7 -5.7z"/>
  <path d="M344 104.5 c0 -2.3 -4.3 -15 -5.2 -15.3 -1.1 -0.5 -1 -7.2 0 -7.2 2.4 0 7.5 8 9.6 15 2.3 7.9 2.2 9 -1.4 9 -2 0 -3 -0.5 -3 -1.5z"/>
  <path d="M147.3 81.5 c3.6 -3.2 4.7 -3.1 4.7 0 0 2.2 -0.4 2.5 -3.7 2.5 l-3.8 -0.1 2.8 -2.4z"/>
  <path d="M162.3 79.3 c-3.7 -0.3 -5.3 -0.8 -5.3 -1.8 0 -3.5 16.1 -2.8 16.8 0.8 0.4 1.8 0.5 1.8 -11.5 1z"/>
  <path d="M323.3 78.7 c-3.3 -0.7 -4.3 -1.5 -4.3 -3 0 -1.8 0.5 -1.9 4.5 -1.4 5.4 0.8 11.5 3.2 11.5 4.6 0 1.3 -6 1.2 -11.7 -0.2z"/>
 </g>
 <g fill="#022221">
  <path d="M246.6 436.3 c-0.6 -1.5 -0.8 -1.5 -1.6 -0.3 -0.7 1 -1 1.1 -1 0.3 0 -0.7 -0.9 -1.3 -2 -1.3 -1.1 0 -2 0.5 -2 1 0 0.6 -0.7 1 -1.5 1 -0.8 0 -1.5 -0.4 -1.5 -0.8 0 -0.9 -5.9 -3.2 -8.2 -3.2 -0.9 0 -1.9 0.6 -2.2 1.3 -0.4 0.9 -0.8 0.9 -1.1 0.1 -0.3 -0.7 -1.5 -1 -2.5 -0.7 -1.3 0.3 -2 0 -2 -0.8 0 -1.8 -17.3 -7.6 -17.8 -6 -0.5 1.4 -5.7 -1.3 -6.6 -3.4 -0.4 -1 -1.3 -1.4 -2.4 -1.1 -2.2 0.7 -12.6 -5.3 -16.1 -9.2 -1.3 -1.5 -2.8 -2.7 -3.3 -2.7 -0.6 0 -1.6 -0.9 -2.4 -2 -0.8 -1.1 -1.9 -2 -2.4 -2 -1.3 0 -9.2 -8.5 -10.9 -11.8 -0.8 -1.4 -1.7 -2.4 -2.2 -2.2 -0.4 0.3 -1.7 -1.5 -2.9 -4 -1.2 -2.5 -2.6 -4.3 -3.1 -3.9 -0.5 0.3 -0.9 -0.3 -0.9 -1.3 0 -1 -1.1 -3.1 -2.4 -4.6 -1.4 -1.6 -2.8 -4.2 -3.1 -5.8 -0.4 -1.6 -1.1 -2.9 -1.6 -2.9 -0.5 0 -0.9 -0.9 -0.9 -1.9 0 -1.1 -0.4 -2.3 -1 -2.6 -0.5 -0.3 -1 -1.6 -1 -2.9 0 -1.2 -0.6 -2.8 -1.2 -3.4 -1.3 -1.3 -1.5 -15.2 -2 -192.8 l-0.2 -70 2.3 -4.6 c2.5 -5.3 8.1 -10.7 14.1 -13.8 3.3 -1.7 5.7 -2.1 11.8 -1.9 7.8 0.2 14.2 1.9 14.2 3.9 0 0.6 1.3 1.6 3 2.1 1.6 0.6 3.1 1.6 3.1 2.2 0.1 0.7 0.2 1.9 0.3 2.7 0 0.8 1.2 2 2.4 2.6 1.7 0.8 2 1.3 1 1.7 -0.9 0.4 -0.8 0.6 0.3 0.6 1.9 0.1 3.5 3.4 2 3.9 -1.8 0.6 -1.2 3.2 0.7 3.3 1 0 1.2 0.3 0.5 0.6 -1.8 0.7 -1.6 4.3 0.2 4.3 1.2 0 1.5 1.9 1.5 11 0 9.1 -0.3 11 -1.5 11 -1.3 0 -1.5 3.4 -1.5 24.5 0 22.6 0.1 24.5 1.8 24.6 1 0 1.2 0.3 0.4 0.6 -2.3 0.9 -0.1 2.3 3.7 2.3 6.7 0 13.9 1.9 18.1 4.6 l4.1 2.7 2.8 -2.1 c4.9 -3.6 10.1 -5.2 16.9 -5.2 6.2 0 6.7 -0.2 10.9 -4.1 2.5 -2.2 6.9 -5.2 9.9 -6.6 4.8 -2.2 6.6 -2.5 13.5 -2.1 4.6 0.2 8.3 0.8 8.7 1.5 0.4 0.6 2.3 1.4 4.3 1.8 3.6 0.7 3.7 0.6 4.4 -3.1 0.3 -2.1 0.6 -16.4 0.4 -31.8 -0.1 -15.5 0.1 -30.3 0.6 -33.1 2 -13 12.4 -24.3 23.9 -26 6.5 -1 19.1 2.6 23.2 6.6 1.8 1.8 3.1 3.6 2.8 4.1 -0.3 0.4 0.1 0.8 0.9 0.8 0.8 0 1.7 0.7 2.1 1.5 0.3 0.8 0.1 1.5 -0.4 1.5 -1.7 0 0.2 3 1.9 3.1 1 0 1.1 0.2 0.4 0.6 -1.9 0.7 -1.6 2.3 0.5 2.4 1 0 1.2 0.3 0.5 0.6 -1.9 0.7 -1.6 3.3 0.5 3.4 1 0 1.2 0.3 0.5 0.6 -1.8 0.7 -1.6 3.3 0.2 3.3 1.2 0 1.5 1.4 1.5 6.5 0 5.1 -0.3 6.5 -1.5 6.5 -0.9 0 -1.5 0.9 -1.5 2.5 0 1.6 0.6 2.5 1.5 2.5 1.3 0 1.5 4.8 1.5 37.5 0 32.7 -0.2 37.5 -1.5 37.5 -0.8 0 -1.5 0.7 -1.5 1.5 0 0.8 0.7 1.5 1.5 1.5 1.2 0 1.5 1.6 1.5 8.8 0 4.9 0.3 9.1 0.6 9.4 0.3 0.4 3.1 -0.6 6.2 -2 3.5 -1.6 8 -2.8 11.7 -3 9.2 -0.6 21.3 3.2 23.8 7.5 0.4 0.7 1.3 1.3 2 1.3 1.3 0 4.3 4 3.9 5.3 -0.1 0.4 0.4 0.7 1.1 0.7 2.8 0 5.2 8 5.2 17 0 7 -0.4 9.3 -2.3 13 -3 5.6 -7 10 -9.3 10 -2.2 0 -3.4 1.7 -1.7 2.3 0.8 0.2 -3.8 5.6 -10.9 12.8 l-12.3 12.4 0 12.8 c0 10.6 -0.2 12.7 -1.5 12.7 -0.9 0 -1.5 0.9 -1.5 2.5 0 1.6 0.6 2.5 1.5 2.5 1 0 1.5 1.1 1.5 3.5 0 2.4 -0.5 3.5 -1.5 3.5 -2.1 0 -1.9 2.8 0.3 3.3 1.6 0.4 1.6 0.5 0 0.6 -1.5 0.1 -1.8 1.1 -1.8 7.1 0 4 0.4 7 1 7 2.5 0 0.4 11.1 -2.2 11.7 -1.9 0.6 -2.5 2.3 -0.8 2.3 0.6 0 1 0.7 1 1.5 0 0.8 -0.8 1.5 -1.7 1.5 -1.5 0 -1.5 0.2 -0.4 0.9 1.1 0.7 1 1 -0.5 1.4 -1.8 0.4 -1.8 0.5 -0.1 0.6 2.4 0.1 1.7 2.6 -3.7 12.1 -2.9 5 -5 7.6 -6.4 7.8 -2.3 0.4 -5.2 3.2 -3.3 3.2 0.6 0 1.1 0.5 1.1 1 0 0.6 -0.9 1 -1.9 1 -2.4 0 -3.6 1.6 -1.9 2.3 0.8 0.3 -0.9 2.7 -4.4 6.3 -4.5 4.6 -6.5 5.9 -8.9 6 -3.2 0.1 -5.1 1.8 -4.3 3.9 1.1 2.7 -21.2 14.9 -25.3 13.9 -1.6 -0.4 -2.3 -0.2 -2.3 0.8 0 1.8 -13.3 6.2 -16 5.3 -1.2 -0.4 -2.6 0 -3.6 0.9 -1.7 1.8 -6.4 2.2 -6.4 0.6 0 -0.5 -0.7 -1 -1.5 -1 -0.8 0 -1.5 0.6 -1.5 1.4 0 1.4 -8.5 2.6 -18.6 2.6 -4 0 -5.3 -0.4 -5.8 -1.7z m8.2 -16.2 c0.8 -0.4 -3.1 -1.1 -9.4 -1.4 -5.9 -0.4 -10.9 -0.5 -11.2 -0.3 -1.8 1.8 17.9 3.5 20.6 1.7z m11.7 -0.1 c1.6 -0.7 1.1 -0.9 -2.2 -0.9 -2.3 -0.1 -4.5 0.4 -4.8 0.9 -0.8 1.2 4.2 1.2 7 0z m-39.9 -3.5 c-2 -1.5 -3.6 -1.9 -3.6 -1 0 0.5 3.8 2.3 5 2.4 0.3 0 -0.4 -0.6 -1.4 -1.4z m31.7 0.2 c3.1 -0.1 5.7 -0.5 5.7 -0.9 0 -0.5 1.4 -0.8 3 -0.8 4.5 0 19.8 -3.9 25.5 -6.5 2.8 -1.3 6.3 -2.7 7.8 -3 1.5 -0.4 2.7 -1.1 2.7 -1.6 0 -0.5 0.6 -0.9 1.3 -0.9 3.5 0 11.9 -5.6 19 -12.4 4.2 -4.2 7.7 -8.1 7.7 -8.7 0 -0.6 1.1 -1.9 2.4 -3 2.7 -2.1 9.6 -15.5 9.6 -18.7 0 -1.2 0.5 -2.2 1 -2.2 0.6 0 1 -1.8 1 -4 0 -2.2 0.3 -4 0.8 -4 0.4 0 0.7 -2.1 0.7 -4.7 0.1 -15.8 1.8 -54.9 2.5 -55.7 0.5 -0.4 0.9 4.9 0.9 12 0.1 7 0.4 13 0.6 13.3 0.3 0.2 0.5 -6 0.5 -13.8 l0 -14.3 10.3 -10.5 c5.6 -5.8 13.3 -13.5 17 -17.1 7.5 -7.4 9.7 -10.9 9.7 -15.9 0 -6.6 -6.2 -13.8 -10.8 -12.6 -1.6 0.4 -2.2 0.1 -2.2 -1.1 0 -1.9 -2.6 -2.2 -3.4 -0.3 -0.5 1 -0.7 1 -1.2 0 -0.7 -1.6 -3.4 -1.7 -3.4 -0.2 0 0.6 0.5 1.9 1 2.9 0.9 1.7 0.5 2.2 -2.7 3.9 -4.2 2.2 -10.2 7.7 -17.9 16.4 -2.8 3.1 -5.6 5.7 -6.3 5.7 -0.6 0 -1.1 0.7 -1.1 1.5 0 0.9 -0.9 1.5 -2.5 1.5 -1.9 0 -2.3 -0.4 -1.8 -1.7 0.4 -1 1.3 -2.3 2.2 -2.9 1.2 -0.9 1 -1.4 -1.5 -2.5 l-2.9 -1.4 -0.3 -76.4 c-0.2 -75.7 -0.2 -76.3 -2.3 -79.3 -2.1 -2.9 -4.4 -3.3 -4.4 -0.7 0 1 -1.3 1.4 -4 1.5 -6.2 0.1 -6.4 0.2 -8.5 3.7 -1.8 2.9 -2 5 -2 26 0 22.4 0 22.8 -2 22.2 -1.9 -0.6 -2 -0.2 -2 5.9 0 5.6 -0.3 6.6 -1.7 6.7 -1.5 0 -1.5 0.2 0.2 0.9 l2 0.9 -2 0.1 -2 0.1 2 0.9 c1.7 0.7 1.7 0.9 0.3 0.9 -1.6 0.1 -1.8 1.2 -1.8 9.6 0 8.4 0.2 9.5 1.8 9.6 1.4 0 1.4 0.2 -0.3 0.9 -1.7 0.7 -1.7 0.9 -0.2 0.9 1.2 0.1 1.7 0.9 1.7 3 0 4.9 -8.1 7.9 -12.4 4.6 -1 -0.8 -2.3 -1.2 -2.7 -0.9 -0.5 0.3 -0.9 -0.4 -0.9 -1.5 0 -2.5 -1.6 -3.6 -2.4 -1.6 -0.3 0.8 -0.1 1.5 0.5 1.5 0.6 0 0.8 0.4 0.4 0.9 -0.3 0.5 0.6 1.8 2 2.9 3.4 2.7 3.2 3.4 -0.5 1.6 -1.6 -0.9 -3 -1.9 -3 -2.4 0 -0.4 -0.9 -1 -2 -1.3 -1.2 -0.3 -2 -1.4 -2 -2.7 0 -1.6 0.4 -2 1.5 -1.6 0.9 0.3 1.8 -0.1 2.2 -1 0.6 -1.7 -4.5 -6.6 -6 -5.7 -0.5 0.3 -1.1 -0.5 -1.4 -1.7 -0.4 -1.5 -1.1 -2 -2.4 -1.7 -1 0.3 -1.9 0.1 -2.1 -0.4 -0.2 -0.4 -1 -0.4 -1.8 0.1 -1.3 0.8 -1.3 1 0.1 1 0.9 0 1.9 0.7 2.3 1.5 0.7 1.8 -0.7 1.9 -5.1 0.3 -3.1 -1.1 -4.5 -2.8 -2.3 -2.8 0.6 0 1 -0.4 1 -1 0 -0.5 -0.7 -1 -1.5 -1 -0.8 0 -1.5 0.5 -1.5 1.1 0 0.7 -1.2 0.9 -3.5 0.5 -2.8 -0.6 -3.5 -0.4 -3.5 0.9 0 0.8 -0.5 1.5 -1 1.5 -1.6 0 -0.7 6.2 1 6.8 2.1 0.8 4 3.5 3.5 5 -0.6 1.8 0.5 4.2 2 4.2 1.7 0 3.2 6.3 1.6 6.8 -1.6 0.5 -1.3 3.2 0.4 3.2 0.8 0 1.5 0.5 1.5 1 0 0.6 -0.7 1 -1.5 1 -1.3 0 -1.5 4.7 -1.5 36.5 0 20.7 0.4 36.5 0.9 36.5 1.5 0 1.9 7.1 0.4 7.7 -1.8 0.7 -1.6 3.3 0.2 3.3 1 0 1.5 1.1 1.5 3.5 0 1.9 0.4 3.5 0.9 3.5 0.6 0 3.6 -2.3 6.8 -5.1 3.2 -2.8 7.3 -5.8 9.1 -6.7 1.7 -0.9 3.2 -1.9 3.2 -2.3 0 -1.1 7.8 -3.9 11 -3.9 1.6 0 3.2 0.5 3.5 1 0.3 0.6 1.6 1 2.8 1.1 1.2 0 1.6 0.3 1 0.6 -0.7 0.2 -1.3 1.1 -1.3 1.9 0 0.8 0.6 1.4 1.3 1.5 0.8 0 0.7 0.3 -0.3 0.6 -4.7 1.9 -7 7.3 -4.2 10.2 1.1 1.1 0.1 2.1 -6 6.1 -4 2.6 -8.7 6.2 -10.4 8.1 -10 11 -17.9 24.4 -21 35.8 -1.4 5 -2 5.9 -3.1 4.9 -1.1 -0.9 -1.7 -0.9 -2.4 0.3 -0.5 0.8 -0.9 2 -0.9 2.7 0 0.6 -0.8 1.3 -1.7 1.3 -1.7 0.1 -1.7 0.2 -0.1 0.6 1.3 0.3 1.6 1.2 1.2 3.6 -1.1 6.5 -1.5 7.7 -2.4 7.7 -0.6 0 -1.9 0.9 -3.1 2.1 -1.6 1.6 -2.8 2 -5.2 1.5 -4.2 -0.8 -5.4 -2.1 -6.2 -6.4 -0.4 -2 -1.3 -4.4 -2.1 -5.3 -1.2 -1.3 -1.2 -2.2 -0.3 -4.5 0.6 -1.6 1.1 -5.3 1 -8.1 0 -2.9 0.4 -5.3 0.9 -5.3 0.6 0 1 -0.4 1 -1 0 -0.5 -1.5 -1 -3.4 -1 -1.9 0 -4.1 -0.3 -5 -0.6 -2 -0.8 -2.1 -3.4 -0.1 -3.4 0.8 0 1.5 -0.7 1.5 -1.5 0 -0.8 -0.6 -1.5 -1.2 -1.5 -3.3 0 -12.3 -5.4 -16 -9.5 -2.3 -2.5 -4.4 -4.1 -4.8 -3.5 -0.3 0.5 -1.2 -0.6 -1.9 -2.5 -0.7 -1.9 -1.7 -3.5 -2.2 -3.5 -1.9 0 3.5 8.6 8.8 13.8 5.3 5.3 5.3 5.6 0.1 2 -1.4 -1 -3.6 -1.8 -4.7 -1.8 -1.4 0 -2.1 -0.6 -2.1 -2 0 -1.1 -0.4 -2 -0.9 -2 -0.5 0 -1.2 -1.1 -1.5 -2.4 -1 -4.2 -3.1 -5.4 -8 -4.9 -2.5 0.3 -7 0.2 -10 -0.1 -5.3 -0.7 -5.9 -1.1 -15.1 -10.1 -9.4 -9.3 -10.4 -10.8 -8.5 -12 0.5 -0.3 1 0 1 0.9 0 2 9.3 12 13.6 14.7 6.3 3.8 4.9 1 -3.4 -7 -8.5 -8.2 -9.8 -10.4 -11.2 -18.6 -0.5 -2.7 -1.3 -6.2 -1.9 -7.8 -1 -2.5 -1.4 -2.7 -5.5 -2.3 -3 0.3 -5.2 1.3 -7 3.1 -2.7 2.7 -3.6 7.5 -1.3 7.5 0.9 0 1.1 3.8 0.9 16.7 -0.2 9.3 -0.7 17 -1.3 17.1 -0.5 0.2 -0.9 3.9 -0.9 8.3 0 6.8 0.2 7.9 1.8 8 1.6 0.1 1.6 0.2 0 0.6 -2.1 0.5 -2.4 2.3 -0.5 2.3 0.8 0 1.7 1.9 2.3 4.8 0.7 3.8 1.3 4.8 3.2 5 1.3 0.2 2.2 1 2.2 2.1 0 2.8 7.8 18.2 12.3 24.1 9.8 13 23.6 24.1 37.4 30 4.3 1.9 8.1 3.8 8.4 4.2 0.3 0.5 4.6 1.6 9.5 2.5 4.9 0.9 9.2 2 9.5 2.5 1.1 1.7 6.4 2.7 10.9 2.2 2.5 -0.3 7.1 -0.6 10.3 -0.7z m-38.8 -2.7 c-1.1 -0.5 -2.7 -0.9 -3.5 -0.9 -0.9 0 -0.8 0.4 0.5 0.9 1.1 0.5 2.7 0.9 3.5 0.9 0.9 0 0.8 -0.4 -0.5 -0.9z m97 -11.9 c3.9 -2.5 17.5 -15.8 17.5 -17.2 0 -0.6 -3.3 2.2 -7.2 6.1 -4 4 -9 8.4 -11 9.8 -2.1 1.3 -3.8 2.6 -3.8 2.8 0 0.9 1.7 0.3 4.5 -1.5z m24.6 -26.8 c4.6 -8 3.1 -7.2 -1.9 0.9 -2.3 3.9 -3.5 6.5 -2.7 5.8 0.8 -0.7 2.9 -3.7 4.6 -6.7z m6.7 -16.4 c-0.3 -2 -0.5 -1.9 -0.9 0.9 -0.3 2 -0.2 2.9 0.4 2.3 0.5 -0.5 0.7 -1.9 0.5 -3.2z m-103.3 -4.6 c0.9 -4.3 2.3 -9.5 3.1 -11.6 1 -2.8 1.1 -4.3 0.4 -5.7 -1.2 -2.2 -1.2 -2.2 -3.4 -1.4 -2.3 0.9 -2 2.4 0.4 2.4 2.4 0 2.4 -0.6 0.1 8.2 -2.2 8.3 -3.5 15.8 -2.8 15.8 0.3 0 1.3 -3.5 2.2 -7.7z m105.8 -8.8 c0.4 -6.2 0.4 -6.9 -0.3 -3 -1.4 8.9 -1.9 14 -1.1 12.5 0.5 -0.8 1.1 -5.1 1.4 -9.5z m0.4 -27.2 c-0.2 -1.6 -0.4 -0.5 -0.4 2.2 0 2.8 0.2 4 0.4 2.8 0.2 -1.3 0.2 -3.5 0 -5z m-103.8 -1.2 c1.4 -0.9 3.4 -2.9 4.5 -4.4 1.9 -2.6 2 -4.2 1.9 -56.7 -0.2 -53.5 -0.2 -54 -2.3 -57 -2.5 -3.5 -4.3 -3.8 -6.3 -1 -0.8 1.2 -2 1.8 -3 1.5 -2.3 -0.9 -7.5 2.1 -9.2 5.5 -1.2 2.3 -1.5 6.8 -1.5 21 0 15.3 -0.2 18 -1.5 18 -0.8 0 -1.5 -0.7 -1.5 -1.5 0 -0.8 -0.7 -1.5 -1.5 -1.5 -1.1 0 -1.5 1.2 -1.5 4.5 0 2.5 0.5 4.5 1 4.5 0.6 0 1 10.5 1 29.4 0 20.1 0.4 30.4 1.2 32.3 0.6 1.5 1.1 3.1 1 3.5 -0.2 0.6 3.9 2.8 7.8 4.1 2.3 0.8 7.2 -0.3 9.9 -2.2z m-39.9 -4.1 c0 -0.5 -0.9 -1 -2.1 -1 -1.1 0 -1.7 0.5 -1.4 1 0.3 0.6 1.3 1 2.1 1 0.8 0 1.4 -0.4 1.4 -1z m-0.4 -20.3 l3.2 -3.4 0.4 -42.4 c0.5 -41.6 0.4 -42.5 -1.6 -46.4 -1.4 -2.6 -2.8 -4 -4.1 -4 -1.4 0 -1.9 0.6 -1.7 1.8 0.2 1.3 -0.4 1.7 -3.3 1.7 -9.2 0 -10.5 3.2 -10.5 25.6 0 15.2 -0.2 17.5 -1.4 16.4 -1.2 -0.9 -1.6 -0.6 -2.1 2.2 -0.6 3.5 -0.2 42.9 0.6 46.3 0.2 1.1 2.2 3 4.4 4.2 5.9 3.4 11.9 2.6 16.1 -2z m-39.5 -33.7 c0.4 -1.4 0.7 -14.7 0.8 -29.6 0.1 -29.4 0.3 -30.9 5.9 -38.3 l2.7 -3.4 0 -42.4 c0.1 -26.9 -0.3 -43.5 -1 -45.5 -1.3 -4 -6.6 -7.4 -9.2 -5.9 -1.5 0.8 -1.5 1 -0.2 1.1 0.8 0 2.4 0.7 3.5 1.5 1.8 1.4 1.6 1.5 -2.1 1 -4.3 -0.6 -5.9 0.3 -8.8 4.5 -1.5 2.1 -1.7 5.4 -1.7 25.8 0 16.8 -0.3 23.1 -1.1 22.6 -0.6 -0.3 -1.5 0 -2 0.7 -0.5 0.8 -0.8 21.2 -0.8 45.4 0 29.5 -0.4 44.1 -1.1 44.3 -1.4 0.5 -1.3 6.2 0.3 6.3 1 0 1 0.2 0 0.6 -1.9 0.7 -1.6 4.3 0.3 4.3 1.1 0 1.5 0.9 1.4 3.3 -0.4 6.2 -0.2 6.4 8 6.3 3.8 -0.1 4.5 -0.4 5.1 -2.6z m77.9 -62.9 c0 -0.5 -0.7 -1.1 -1.5 -1.5 -0.9 -0.3 -1.5 0 -1.5 0.9 0 0.8 0.7 1.5 1.5 1.5 0.8 0 1.5 -0.4 1.5 -0.9z m-82 -102.1 c0.8 -0.5 1.1 -1.2 0.8 -1.6 -0.4 -0.3 -1.4 0.1 -2.3 1 -1.8 1.7 -0.9 2.1 1.5 0.6z"/>
  <path d="M246 378.9 c0 -1.2 -0.8 -2.3 -2 -2.6 -1.1 -0.3 -1.7 -1 -1.4 -1.5 0.3 -0.5 1.4 -0.2 2.4 0.7 1.3 1.2 3.1 1.6 6 1.3 3.6 -0.3 4 -0.1 4 1.9 0 2.1 -0.5 2.3 -4.5 2.3 -3.9 0 -4.5 -0.3 -4.5 -2.1z"/>
  <path d="M284.8 284.8 c1.2 -0.6 2.2 -1.4 2.2 -1.8 0 -0.8 1.8 -1.7 6.2 -3 3.9 -1.2 2.6 1.5 -1.5 3 -1.8 0.6 -4 1.6 -4.9 2.1 -1 0.5 -2.3 0.9 -3 0.8 -0.7 0 -0.3 -0.5 1 -1.1z"/>
  <path d="M228.5 249.7 c-0.4 -1 -0.5 -2.1 -0.1 -2.4 1 -1 1.8 0.4 1.3 2.4 -0.4 1.7 -0.4 1.7 -1.2 0z"/>
  <path d="M95.2 283.6 c-1.2 -2.5 -2.9 -4.6 -3.7 -4.6 -0.8 0 -2.3 -0.9 -3.2 -2 -1 -1.1 -2.3 -2 -3 -2 -2.7 0 -1.2 -1.9 2 -2.5 4.3 -0.8 6 -2.2 8.5 -7 1.2 -2.2 2.1 -3.4 2.2 -2.7 0 0.6 0.6 1.2 1.4 1.2 0.8 0 2.3 1.6 3.4 3.5 1.4 2.3 3.2 3.7 5.4 4.3 5 1.3 5 4.4 -0.2 6.4 -2.4 1 -4.7 2.8 -5.8 4.7 -0.9 1.7 -2.2 3.1 -2.9 3.1 -0.6 0 -1.3 0.5 -1.5 1.1 -0.2 0.5 -1.3 -1 -2.6 -3.5z"/>
  <path d="M238.2 140.5 c-1.8 -1.5 -3.8 -3.8 -4.5 -5.3 -0.7 -1.5 -1.9 -2.6 -2.5 -2.4 -0.7 0.1 -1.2 -0.5 -1.2 -1.4 0 -0.8 -0.4 -1.3 -0.9 -1 -1.3 0.8 -2.2 -5.1 -1.1 -7.8 0.5 -1.3 1.8 -2.7 3 -3.1 2.2 -0.7 8.5 0.3 7.6 1.2 -0.3 0.4 0.6 1.2 2 1.9 2.4 1.3 2.9 1.2 5.6 -1.1 1.6 -1.4 3.7 -2.5 4.7 -2.5 2.5 0 8.8 3.3 7.3 3.8 -1.7 0.5 -1.5 3.2 0.3 3.2 1.9 0 1.9 1 -0.1 3.8 -0.8 1.2 -2.4 2.2 -3.5 2.2 -1.2 0 -1.7 0.4 -1.4 1.1 1 1.5 -2.4 4.9 -4.1 4.2 -1.9 -0.7 -4.6 1.6 -4 3.4 0.3 0.7 0.1 1.3 -0.3 1.3 -0.5 0 -1.6 0.2 -2.4 0.6 -0.8 0.3 -2.8 -0.7 -4.5 -2.1z"/>
 </g>
 <g fill="#de9f1c">
  <path d="M236.5 418 c-34.1 -5.3 -62.2 -25 -75.4 -53 -4.8 -10.4 -6 -15 -3.6 -15 4.3 0 8.6 3 10.4 7.3 3.1 7.3 12.9 21.6 18.2 26.8 10.9 10.6 27.3 19.9 41 23.3 21.7 5.3 46.6 3.8 65.4 -4.1 8.2 -3.4 20.9 -12 27.3 -18.4 6.5 -6.5 13.7 -17.1 17.1 -25.3 2.5 -6 2.6 -6.7 2.9 -33.7 l0.4 -27.6 3 -3.7 c1.6 -2 3.8 -4.1 4.8 -4.6 1.8 -1 1.9 -0.1 2 24.7 0.1 36.3 -1.5 46 -10 60.3 -4.5 7.6 -17.9 21.5 -25.9 26.8 -8 5.4 -21 11 -32 13.9 -7.7 2 -12.6 2.6 -24.6 2.8 -8.2 0.2 -17.7 0 -21 -0.5z"/>
  <path d="M244.6 386.4 c-2 -2.1 -2.6 -3.7 -2.6 -7 0 -4.7 1.1 -6.2 2.9 -4 2.1 2.5 6.1 2.8 9.6 0.7 1.8 -1.1 3.6 -1.7 3.9 -1.4 0.3 0.4 0.6 2.8 0.6 5.4 0 3.7 -0.5 5.3 -2.2 6.9 -3.2 3 -8.8 2.7 -12.2 -0.6z"/>
  <path d="M237.5 358.9 c-4.4 -4.6 -14.8 -11.6 -21 -14.2 -2.2 -0.9 -7.4 -2.6 -11.5 -3.8 -21.1 -6 -34.5 -19.3 -36.9 -36.5 -1.2 -7.8 -0.5 -9.9 1.7 -5.5 2.3 4.9 12.6 13.9 17.5 15.2 5 1.4 12.9 1.7 17.7 0.6 3.4 -0.8 3.5 -0.7 5.4 3.8 2.6 6.4 9.7 13.9 16.2 17.1 4.5 2.2 7.1 2.7 13 2.8 4.1 0 7.4 0.4 7.4 0.8 0 0.4 -0.5 1.9 -1.1 3.5 -0.6 1.5 -1.8 6.8 -2.7 11.6 l-1.7 8.8 -4 -4.2z"/>
  <path d="M282.5 283.8 c-0.3 -1.3 -0.6 -21.6 -0.7 -45.3 -0.3 -41.6 -0.4 -43.1 -2.4 -47.5 -2.5 -5.2 -6.8 -10 -8.9 -10 -0.8 0 -1.5 -0.4 -1.5 -1 0 -0.5 0.8 -1 1.8 -1 3.8 0 5.9 1.3 7.6 4.5 1.2 2.2 3.2 3.9 5.8 5 4.2 1.6 7.1 3.9 6.2 4.8 -0.3 0.2 0.5 1.3 1.8 2.3 6 4.8 5.8 3.5 5.8 44.4 l0 37.5 -2.6 2.8 c-1.4 1.5 -3.9 3 -5.5 3.4 -1.6 0.3 -3.2 1 -3.5 1.4 -1 1.7 -3.4 0.9 -3.9 -1.3z"/>
 </g>
 <g fill="#fefbee">
  <path d="M263 353.5 c-1.7 -2 0.4 -9.5 2.5 -9.5 1.8 0 2 -2.7 0.3 -3.2 -1.6 -0.6 3.8 -9.8 5.7 -9.8 1 0 1.5 -1 1.5 -2.7 0 -1.6 0.9 -4.3 2 -6 1.8 -2.9 2.5 -3.3 6.5 -3.3 2.5 0 4.5 0.3 4.5 0.6 0 0.3 -1.5 2.4 -3.4 4.7 -4 4.9 -11.2 19.1 -13.3 25.9 -1.5 5.1 -3.8 6.3 -6.3 3.3z"/>
  <path d="M109.5 342.8 c-3.8 -1.3 -9.1 -5.3 -11.1 -8.2 -1.8 -2.8 -3.7 -14 -2.9 -16.7 0.7 -2.1 3.5 -2.5 5.3 -0.7 0.7 0.7 1.2 2.9 1.2 5 0 6.6 2.3 10.4 7.8 13.2 5.3 2.7 6.9 5 5.1 7.2 -1.3 1.6 -1.4 1.6 -5.4 0.2z"/>
  <path d="M389.2 342.8 c-2.2 -2.2 -1.2 -3.7 4.7 -6.8 6.1 -3.3 7.6 -5.3 8.6 -11.7 1.3 -8.1 1.5 -8.4 3.8 -8.1 2 0.3 2.2 0.8 2.2 6.8 0 8.4 -3 14.8 -8.3 17.7 -5 2.8 -9.4 3.7 -11 2.1z"/>
  <path d="M286.4 316.7 c-0.3 -0.8 -0.4 -2.8 -0.2 -4.4 0.3 -2.6 0.7 -2.8 5.2 -3.1 5.8 -0.4 5.8 0.7 -0.2 5.6 -3.4 2.8 -4.3 3.1 -4.8 1.9z"/>
  <path d="M298 304 c0 -3.3 0.4 -4.2 2.5 -5.2 2.1 -1 2.8 -0.8 4 0.8 2.1 2.7 1.8 4 -1.1 6.3 -4.1 3.2 -5.4 2.7 -5.4 -1.9z"/>
  <path d="M336.2 263.8 c-1.7 -1.7 -1.5 -3.2 1 -6.3 2 -2.6 2.2 -2.6 2.9 -0.9 0.7 1.7 0.8 1.7 0.8 -0.3 0.1 -1.2 0.9 -2.4 2 -2.8 1.1 -0.3 2.2 -1.4 2.6 -2.3 0.3 -1 2.1 -3.5 4 -5.5 1.9 -2 3.5 -4.1 3.5 -4.6 0 -0.5 0.9 -1.3 2 -1.6 1.1 -0.4 1.8 -1 1.5 -1.4 -0.7 -1.2 2.5 -3.8 6.9 -5.6 3.2 -1.4 4 -1.4 4.7 -0.3 1.7 2.6 0.7 4.3 -7.8 13.1 -4.9 4.9 -11.2 11.4 -14 14.3 -5.3 5.4 -7.8 6.5 -10.1 4.2z"/>
  <path d="M229.4 250.5 c-1.5 -1 -1.6 -2.5 -1.1 -10.6 0.4 -5.2 0.9 -14.9 1.3 -21.7 0.9 -18.3 3.6 -23.3 11.8 -21.8 2.9 0.6 3.3 1 3 3.4 -0.1 1.5 -1 3.2 -1.9 3.7 -6.5 3.9 -6.5 3.9 -6.5 15.4 0 5.9 -0.3 15.5 -0.6 21.4 -0.6 9 -1 10.6 -2.5 11 -1 0.3 -2.6 -0.1 -3.5 -0.8z"/>
  <path d="M188.7 250.3 c-0.4 -0.3 -0.7 -2.3 -0.7 -4.4 0 -2.1 -0.4 -4.1 -1 -4.4 -0.5 -0.3 -1 -2.4 -1 -4.6 0 -2.1 0.5 -3.9 1 -3.9 0.6 0 1 -4.5 1 -11.5 l0 -11.5 3 0 3 0 0 9.8 c0 5.5 -0.3 14.7 -0.7 20.5 -0.5 9.1 -0.9 10.7 -2.3 10.7 -0.9 0 -2 -0.3 -2.3 -0.7z"/>
  <path d="M192.6 208.3 c-0.3 -0.4 -0.6 -2.4 -0.6 -4.5 0 -3.4 0.3 -3.8 2.5 -3.8 1.8 0 2.5 -0.5 2.5 -2 0 -2.3 0 -2.3 3.5 -1 2.1 0.8 2.6 1.6 2.3 3.6 -0.2 1.5 -1.2 3.2 -2.3 3.8 -1.1 0.5 -3.2 1.8 -4.6 2.8 -1.5 0.9 -2.9 1.4 -3.3 1.1z"/>
  <path d="M264 158.4 c-2.3 -2 -3 -3.4 -2.8 -5.3 0.4 -3.5 2.9 -3.7 6.7 -0.6 3.5 3 4 5.9 1.2 7.5 -1.6 0.8 -2.6 0.5 -5.1 -1.6z"/>
  <path d="M215.4 157.5 c-0.7 -1.8 4.3 -8.5 6.5 -8.5 1.7 0 4.1 1.8 4.1 3.1 0 0.4 -1.2 2.1 -2.6 3.8 -2.8 3.3 -7 4.2 -8 1.6z"/>
  <path d="M155.3 150.3 c-1 -0.4 -1.3 -5.3 -1.3 -20.4 l0 -19.9 2.5 0 2.5 0 0 19.9 c0 20.2 -0.3 21.6 -3.7 20.4z"/>
  <path d="M310.7 149.8 c-1.5 -1.2 -1.6 -2.9 -1 -15 l0.6 -13.8 2.9 0 2.8 0 0 13.1 c0 15.5 -1.1 18.8 -5.3 15.7z"/>
  <path d="M310 109.1 c0 -6.2 0.7 -8.1 3 -8.1 1 0 2 -0.9 2.3 -2 0.4 -1.5 1.4 -2 3.6 -2 2.1 0 3.1 -0.5 3.1 -1.5 0 -1.8 0.5 -1.8 3 -0.5 2.9 1.5 0.7 5.5 -4 7.4 -4.1 1.6 -5 3.1 -5 8.2 0 3.1 -0.3 3.4 -3 3.4 -2.9 0 -3 -0.1 -3 -4.9z"/>
  <path d="M158 104.4 c0 -2.3 0.6 -4.2 1.8 -5 1 -0.8 1.2 -1.3 0.5 -1.4 -2.3 0 -1.3 -2.8 1.2 -3.4 2.6 -0.7 10.9 2.3 8.8 3.1 -0.7 0.3 -1.3 1.4 -1.3 2.4 0 1.4 -1.4 2.6 -4.5 4 -2.5 1.1 -4.5 2.4 -4.5 2.9 0 0.6 -0.4 1 -1 1 -0.5 0 -1 -1.6 -1 -3.6z"/>
  <path d="M217.7 95.2 c-3.4 -3.6 -3.6 -7.2 -0.4 -7.2 2.9 0 8 5.2 7.5 7.7 -0.5 2.9 -4.1 2.7 -7.1 -0.5z"/>
  <path d="M261.4 95.4 c-0.5 -1.9 0 -3.2 2.2 -5.5 3 -3.2 5.5 -3.7 7.3 -1.5 1.5 1.8 0.2 4.6 -3.5 7.5 -3.5 2.8 -5.2 2.6 -6 -0.5z"/>
 </g>
 <g fill="#fdfaf3">
  <path d="M263.3 351.5 c-2.5 -6.8 11.6 -32.9 23.7 -43.9 2.1 -1.9 5.8 -4.6 8.4 -6.1 l4.6 -2.7 2.5 2 c2.4 1.9 2.4 2 0.5 2.5 -1.2 0.3 -1.8 1.1 -1.5 1.9 0.7 1.7 -6.9 7.2 -10 7.2 -1.1 0.1 -2 0.8 -2 1.6 0 2.8 -5.4 8.8 -7.4 8.3 -2.4 -0.6 -5.7 3.7 -3.8 4.9 0.8 0.5 0.6 0.8 -0.8 0.8 -1.5 0 -1.7 0.2 -0.6 0.9 1.9 1.2 0.4 5.1 -1.9 5.1 -2.6 0 -5.8 5.9 -3.9 7.1 1.7 1 -0.4 5.9 -2.5 5.9 -0.8 0 -1.9 1.4 -2.5 3 -1.1 3.3 -1.9 3.7 -2.8 1.5z"/>
  <path d="M110 342 c0 -0.5 -0.6 -0.7 -1.4 -0.4 -0.7 0.3 -1.6 -0.2 -2 -1.1 -0.3 -0.9 -1.1 -1.3 -1.7 -1 -1.3 0.8 -4.9 -2.3 -4.9 -4.2 0 -0.7 -0.7 -1.6 -1.5 -1.9 -1 -0.4 -1.5 -1.9 -1.5 -4.3 0 -2 -0.4 -5 -0.8 -6.6 -1.1 -3.6 -0.6 -5.5 1.4 -5.5 1 0 1.4 1.3 1.4 4.3 0 8 3.7 14.6 8.1 14.7 2.8 0 6.1 3.3 5.4 5.3 -0.8 1.8 -2.5 2.4 -2.5 0.7z"/>
  <path d="M389 340 c0 -1.4 3.1 -2.8 5.1 -2.3 2.6 0.7 2.4 1.9 -0.3 2.7 -3.3 0.8 -4.8 0.7 -4.8 -0.4z"/>
  <path d="M402 330.3 c0 -1 0.7 -3.1 1.5 -4.7 1 -1.9 1.3 -4.1 0.9 -5.9 -0.5 -2.5 -0.4 -2.9 1.1 -2.4 0.9 0.4 2.1 0.7 2.6 0.7 0.5 0 0.9 1.4 0.9 3 0 1.8 -0.5 3 -1.3 3 -0.8 0 -1.9 1.8 -2.6 4 -1.2 4.1 -3.1 5.4 -3.1 2.3z"/>
  <path d="M337.6 263.4 c-1.4 -3.6 -0.3 -6.1 6.1 -13.3 9 -10.4 18 -18.1 20.9 -18.1 1.8 0 1.1 2.8 -1.2 4.5 -1 0.8 -1.5 1.5 -1 1.5 0.5 0 -0.4 1.1 -2 2.5 -3.4 3 -3.3 2.9 -7.8 7.9 -2.6 2.9 -3.2 4.2 -2.3 4.8 0.8 0.5 0.7 0.8 -0.6 0.8 -1 0 -1.6 0.4 -1.3 0.9 0.3 0.5 -0.6 1.2 -2 1.5 -1.9 0.5 -2.4 1.1 -1.9 2.6 0.5 1.6 0.2 2 -1.7 2 -1.9 0 -2 0.2 -0.8 1 1.3 0.9 1.3 1.1 0 2 -2.2 1.4 -3.7 1.2 -4.4 -0.6z"/>
  <path d="M228 223 c0 -20.4 0.7 -23.1 6.5 -25.6 4.4 -1.8 8 -1.9 6.5 -0.1 -5.4 6.4 -7 9.1 -5.8 9.9 1 0.6 0.8 0.8 -0.4 0.8 -1.5 0 -1.8 1.1 -1.9 7.3 -0.1 3.9 -0.2 10.5 -0.3 14.5 -0.1 5.2 0.3 7.2 1.2 7.2 0.6 0 1.2 0.5 1.2 1.1 0 0.6 -0.9 0.9 -1.9 0.6 -1.2 -0.3 -2.2 0.1 -2.5 0.9 -0.3 0.8 -1 1.4 -1.6 1.4 -0.6 0 -1 -6.3 -1 -18z"/>
  <path d="M187.3 236.3 c-1 -0.3 -1.3 -4.5 -1.3 -16.1 0 -18 1 -21 7.5 -23.2 4.5 -1.5 6.5 -0.8 6.5 2.5 0 1.4 0.5 2.5 1 2.5 0.6 0 1 0.4 1 0.9 0 0.6 -1.6 0.7 -3.6 0.4 -3.3 -0.5 -3.6 -0.4 -3 1.5 0.4 1.1 0.2 2.3 -0.4 2.7 -0.5 0.3 -1 1.7 -1 3.1 0 1.5 -0.6 2.4 -1.5 2.4 -1.2 0 -1.5 1.9 -1.5 11.4 0 8.2 0.4 11.6 1.3 11.9 0.6 0.3 0.1 0.5 -1.3 0.5 -1.4 0 -3.1 -0.2 -3.7 -0.5z"/>
  <path d="M216 156.7 c0 -2.4 3.3 -6.7 5 -6.7 1.9 0 1 3.8 -1 4.3 -1.2 0.3 -2 1.4 -2 2.6 0 1.2 -0.4 2.1 -1 2.1 -0.5 0 -1 -1 -1 -2.3z"/>
  <path d="M267.9 158.3 c-3.4 -0.5 -7.7 -4.9 -6.2 -6.4 0.7 -0.7 1.4 -0.5 2.3 0.6 0.7 0.8 2.4 1.5 3.9 1.5 2 0 2.3 0.2 1.1 1 -1.3 0.8 -1.2 1 0.3 1 0.9 0 1.7 0.7 1.7 1.5 0 0.8 -0.1 1.4 -0.2 1.4 -0.2 -0.1 -1.5 -0.4 -2.9 -0.6z"/>
  <path d="M310.3 147.4 c-0.8 -0.4 -1.1 -7.1 -1.2 -23.2 -0.1 -20.9 0 -22.9 1.8 -25.9 2.4 -3.8 7.7 -5.7 12 -4.2 2.3 0.8 2.7 1.4 2.3 3.9 -0.4 2.6 -0.7 2.9 -3.4 2.3 -2.4 -0.5 -3 -0.2 -3.5 1.6 -0.3 1.3 -1.3 2.1 -2.7 2.1 -1.7 0 -1.8 0.2 -0.6 1 1.3 0.8 1.2 1 -0.2 1 -1.2 0 -1.8 0.8 -1.8 2.5 0 1.6 0.6 2.5 1.5 2.5 1.2 0 1.5 1.4 1.5 6.5 0 5.1 -0.3 6.5 -1.5 6.5 -0.8 0 -1.5 0.9 -1.5 2 0 1.1 0.7 2 1.5 2 1 0 1.5 1 1.5 3 0 2 -0.5 3 -1.5 3 -2.3 0 -2 6.7 0.3 7.3 1.6 0.4 1.6 0.5 0 0.6 -2.2 0.1 -2.4 2.7 -0.2 3.5 0.8 0.3 1.2 1 0.9 1.6 -0.6 1 -3.1 1.2 -5.2 0.4z"/>
  <path d="M154.1 142 l0.2 -5.5 0.7 4.5 c0.4 2.5 0.4 4.9 -0.1 5.5 -0.5 0.5 -0.8 -1.3 -0.8 -4.5z"/>
  <path d="M154.2 112 c-0.2 -8.5 0.1 -11 1.5 -13 2.4 -3.6 3.3 -4 8.3 -3.9 2.5 0 3.9 0.3 3.3 0.6 -1.8 0.7 -1.6 2.3 0.2 2.3 0.8 0 1.5 0.9 1.5 2.1 0 1.6 -0.4 1.9 -1.9 1.4 -3.2 -1 -5.9 1.5 -7.1 6.6 -0.8 3.1 -1.8 4.9 -3 5.2 -1.4 0.4 -2 1.6 -2.3 4.8 -0.2 2.4 -0.4 -0.3 -0.5 -6.1z"/>
  <path d="M217.7 93.5 c-2.8 -2.5 -2.9 -4.5 -0.1 -4.5 0.8 0 1.4 0.5 1.4 1 0 0.6 1.1 1.5 2.4 2.2 1.4 0.6 2.7 1.7 3 2.4 0.9 2.3 -3.6 1.6 -6.7 -1.1z"/>
  <path d="M262 92.5 c0 -2 4.8 -4.7 7 -4 3 1 2.4 1.9 -2.5 3.6 -3.4 1.3 -4.5 1.4 -4.5 0.4z"/>
 </g>
 <g fill="#fffffe">
  <path d="M264.2 344.8 c0.2 -0.6 1 -1.4 1.6 -1.6 0.7 -0.2 1 0.2 0.6 1.2 -0.7 1.8 -2.8 2.2 -2.2 0.4z"/>
  <path d="M110 340 c-0.8 -0.5 -1.1 -1.2 -0.7 -1.6 0.4 -0.4 1.3 -0.2 1.9 0.4 1.5 1.5 0.7 2.4 -1.2 1.2z"/>
  <path d="M104.1 339.2 c-0.1 -0.7 -0.5 -1 -1.1 -0.7 -0.6 0.3 -1 -0.4 -1 -1.7 0 -2 0.1 -2.1 1.6 -0.6 0.9 0.9 1.4 2.2 1.1 3 -0.4 1 -0.6 1 -0.6 0z"/>
  <path d="M98.7 332.4 c-0.4 -0.4 -0.7 -1.7 -0.7 -2.8 0.1 -1.9 0.1 -2 1.1 -0.3 1.1 1.9 0.8 4.3 -0.4 3.1z"/>
  <path d="M275.2 322 c1.2 -1.6 2.3 -3 2.5 -3 0.2 0 -0.3 1.4 -1.2 3 -0.9 1.7 -2 3 -2.6 3 -0.5 0 0 -1.3 1.3 -3z"/>
  <path d="M96 318.5 c0 -0.8 0.5 -1.5 1 -1.5 0.6 0 1 0.7 1 1.5 0 0.8 -0.4 1.5 -1 1.5 -0.5 0 -1 -0.7 -1 -1.5z"/>
  <path d="M297.9 303.9 c1.3 -1.1 2.6 -1.7 2.9 -1.4 0.7 0.6 -2.9 3.4 -4.3 3.4 -0.5 0 0.1 -0.9 1.4 -2z"/>
  <path d="M229 205.2 c0 -2.5 3.1 -7.3 4.2 -6.5 0.9 0.5 0.9 0.8 0.1 1 -0.6 0.2 -0.8 1.4 -0.5 2.6 0.3 1.2 0.1 1.9 -0.3 1.5 -0.4 -0.4 -1.4 0 -2.1 1 -0.9 1.1 -1.3 1.3 -1.4 0.4z"/>
  <path d="M216 156.3 c0 -1.5 4 -6.3 5.2 -6.3 1.6 0 0.8 3.1 -0.9 3.7 -1 0.4 -2.3 1.4 -3 2.2 -0.8 1.1 -1.2 1.2 -1.3 0.4z"/>
  <path d="M264.7 156.4 c-1.2 -1.2 0.4 -2.4 2.9 -2.4 2.3 0 2.4 0.2 1 1.5 -1.6 1.6 -2.9 1.9 -3.9 0.9z"/>
  <path d="M311.7 145.4 c0.3 -0.9 0.9 -1.2 1.2 -0.7 0.3 0.4 1 1.1 1.5 1.6 0.5 0.4 0 0.7 -1.2 0.7 -1.5 0 -2 -0.4 -1.5 -1.6z"/>
  <path d="M155 100.6 c0 -0.7 0.9 -2.1 2 -3.1 1.6 -1.4 2 -1.5 2 -0.4 0 0.8 -0.9 2.2 -2 3.2 -1.5 1.2 -2 1.3 -2 0.3z"/>
  <path d="M222.5 95.2 c-3.2 -1.1 -6.5 -3.6 -6.5 -4.9 0 -2.1 2.1 -1.5 2.7 0.7 0.3 1.3 1.4 2 2.8 2 1.3 0 2.5 0.7 2.9 1.5 0.3 0.8 0.4 1.5 0.3 1.4 -0.1 -0.1 -1.1 -0.4 -2.2 -0.7z"/>
  <path d="M265.9 89.6 c0.7 -0.8 2.1 -1.2 3.1 -0.9 3.1 0.8 2.3 2.3 -1.1 2.3 -2.6 0 -2.9 -0.3 -2 -1.4z"/>
 </g>
</svg>